# xmcd
#
# Track frame offsets:
#	150
#	17470
#	30229
#	43981
#	54708
#	67829
#	85595
#	101897
#	120448
#	136265
#	152289
#
# Disc length: 2331 seconds
#
# Revision: 0
# Processed by: cddbd v1.5.2PL0 Copyright (c) Steve Scherf et al.
# Submitted via: EasyCDDAExtractor 11.9.9.666
#
DISCID=7b09190b
DTITLE=Beth Scalet - Blues In Paradise
DYEAR=2005
DGENRE=Blues
TTITLE0=St. James Infirmary
TTITLE1=Blue Blue Song
TTITLE2=Come Back Baby
TTITLE3=Moped
TTITLE4=Hollywood Movies
TTITLE5=I Know You're Right
TTITLE6=Lighthouse Blues
TTITLE7=Blues in Paradise
TTITLE8=Since I Fall For You (live)
TTITLE9=Looking for Trouble (live)
TTITLE10=Guilty (live)
EXTD=
EXTT0=
EXTT1=
EXTT2=
EXTT3=
EXTT4=
EXTT5=
EXTT6=
EXTT7=
EXTT8=
EXTT9=
EXTT10=
PLAYORDER=
